<?xml version="1.0" encoding="UTF-8" standalone="no"?>
<!DOCTYPE svg PUBLIC "-//W3C//DTD SVG 1.1//EN"
 "http://www.w3.org/Graphics/SVG/1.1/DTD/svg11.dtd">
<!-- Generated by graphviz version 2.44.1 (20200629.0846)
 -->
<!-- Title: g Pages: 1 -->
<svg width="2034pt" height="1427pt"
 viewBox="0.00 0.00 2034.23 1427.00" xmlns="http://www.w3.org/2000/svg" xmlns:xlink="http://www.w3.org/1999/xlink">
<g id="graph0" class="graph" transform="scale(1 1) rotate(0) translate(4 1423)">
<title>g</title>
<polygon fill="white" stroke="transparent" points="-4,4 -4,-1423 2030.23,-1423 2030.23,4 -4,4"/>
<g id="clust1" class="cluster">
<title>cluster_575745303</title>
<polygon fill="none" stroke="black" points="8,-8 8,-1411 2018.23,-1411 2018.23,-8 8,-8"/>
<text text-anchor="middle" x="45.94" y="-1394.4" font-family="Times New Roman,serif" font-size="14.00">markusbro</text>
</g>
<!-- AbstractPlugin615989509 -->
<g id="node1" class="node">
<title>AbstractPlugin615989509</title>
<polygon fill="#ffffff" stroke="transparent" points="989.23,-946 625.23,-946 625.23,-728 989.23,-728 989.23,-946"/>
<text text-anchor="start" x="630.23" y="-929.4" font-family="Times New Roman,serif" font-weight="bold" font-size="14.00">(C)AbstractPlugin</text>
<text text-anchor="start" x="630.23" y="-904.4" font-family="Times New Roman,serif" font-size="14.00">&#45; &#160;&#160;dataStorage: DataStorage [1]</text>
<text text-anchor="start" x="630.23" y="-880.4" font-family="Times New Roman,serif" font-size="14.00"># readValue(context: Context, key: String): String</text>
<text text-anchor="start" x="629.82" y="-856.4" font-family="Times New Roman,serif" font-size="14.00"># readValues(context: Context, keyPrefix: String): List&lt;Entry&gt;</text>
<text text-anchor="start" x="630.23" y="-832.4" font-family="Times New Roman,serif" font-size="14.00"># removeValue(context: Context, key: String)</text>
<text text-anchor="start" x="630.23" y="-808.4" font-family="Times New Roman,serif" font-size="14.00"># writeValue(context: Context, key: String, value: String)</text>
<text text-anchor="start" x="630.23" y="-784.4" font-family="Times New Roman,serif" font-size="14.00"># writeValue(context: Context, key: String, value: int)</text>
<text text-anchor="start" x="630.23" y="-760.4" font-family="Times New Roman,serif" font-size="14.00"># writeValue(context: Context, key: String, value: long)</text>
<text text-anchor="start" x="630.23" y="-736.4" font-family="Times New Roman,serif" font-size="14.00"># writeValue(context: Context, key: String, value: double)</text>
<polygon fill="black" stroke="black" points="625.23,-921 625.23,-921 989.23,-921 989.23,-921 625.23,-921"/>
<polygon fill="black" stroke="black" points="625.23,-897 625.23,-897 989.23,-897 989.23,-897 625.23,-897"/>
<polygon fill="none" stroke="black" points="625.23,-728 625.23,-946 989.23,-946 989.23,-728 625.23,-728"/>
</g>
<!-- PluginVital202647824 -->
<g id="node4" class="node">
<title>PluginVital202647824</title>
<polygon fill="#ffffff" stroke="transparent" points="1521.23,-770 1026.23,-770 1026.23,-624 1521.23,-624 1521.23,-770"/>
<text text-anchor="start" x="1031.73" y="-753.4" font-family="Times New Roman,serif" font-weight="bold" font-size="14.00">(C)PluginVital</text>
<text text-anchor="start" x="1031.73" y="-728.4" font-family="Times New Roman,serif" font-size="14.00"># getVitals(context: Context, key: String): List&lt;TemporalVital&gt;</text>
<text text-anchor="start" x="1031.5" y="-704.4" font-family="Times New Roman,serif" font-size="14.00"># getVitals(context: Context, key: String, start: Date, end: Date): List&lt;TemporalVital&gt;</text>
<text text-anchor="start" x="1031.73" y="-680.4" font-family="Times New Roman,serif" font-size="14.00"># storeVital(context: Context, key: String, value: String)</text>
<text text-anchor="start" x="1031.73" y="-656.4" font-family="Times New Roman,serif" font-size="14.00"># storeVital(context: Context, key: String, value: int)</text>
<text text-anchor="start" x="1031.73" y="-632.4" font-family="Times New Roman,serif" font-size="14.00"># storeVital(context: Context, key: String, value: double)</text>
<polygon fill="black" stroke="black" points="1026.73,-745 1026.73,-745 1521.73,-745 1521.73,-745 1026.73,-745"/>
<polygon fill="none" stroke="black" points="1026.23,-624 1026.23,-770 1521.23,-770 1521.23,-624 1026.23,-624"/>
</g>
<!-- AbstractPlugin615989509&#45;&gt;PluginVital202647824 -->
<g id="edge3" class="edge">
<title>AbstractPlugin615989509&#45;&gt;PluginVital202647824</title>
<path fill="none" stroke="black" d="M999.32,-779.4C1009.63,-776.3 1020.04,-773.16 1030.49,-770.01"/>
<polygon fill="none" stroke="black" points="998.04,-776.13 989.48,-782.37 1000.06,-782.84 998.04,-776.13"/>
</g>
<!-- PluginLLM2054438268 -->
<g id="node23" class="node">
<title>PluginLLM2054438268</title>
<polygon fill="#ffffff" stroke="transparent" points="1382.73,-886 1164.73,-886 1164.73,-788 1382.73,-788 1382.73,-886"/>
<text text-anchor="start" x="1169.73" y="-869.4" font-family="Times New Roman,serif" font-weight="bold" font-size="14.00">(C)PluginLLM</text>
<text text-anchor="start" x="1169.73" y="-844.4" font-family="Times New Roman,serif" font-size="14.00">+ getId(): String</text>
<text text-anchor="start" x="1169.66" y="-820.4" font-family="Times New Roman,serif" font-size="14.00">+ getScore(context: Context): double</text>
<text text-anchor="start" x="1169.73" y="-796.4" font-family="Times New Roman,serif" font-size="14.00">+ handle(context: Context)</text>
<polygon fill="black" stroke="black" points="1164.73,-861 1164.73,-861 1382.73,-861 1382.73,-861 1164.73,-861"/>
<polygon fill="none" stroke="black" points="1164.73,-788 1164.73,-886 1382.73,-886 1382.73,-788 1164.73,-788"/>
</g>
<!-- AbstractPlugin615989509&#45;&gt;PluginLLM2054438268 -->
<g id="edge1" class="edge">
<title>AbstractPlugin615989509&#45;&gt;PluginLLM2054438268</title>
<path fill="none" stroke="black" d="M999.58,-837C1055.86,-837 1115.46,-837 1164.57,-837"/>
<polygon fill="none" stroke="black" points="999.48,-833.5 989.48,-837 999.48,-840.5 999.48,-833.5"/>
</g>
<!-- PluginStart615989509 -->
<g id="node24" class="node">
<title>PluginStart615989509</title>
<polygon fill="#ffffff" stroke="transparent" points="1382.73,-1002 1164.73,-1002 1164.73,-904 1382.73,-904 1382.73,-1002"/>
<text text-anchor="start" x="1169.73" y="-985.4" font-family="Times New Roman,serif" font-weight="bold" font-size="14.00">(C)PluginStart</text>
<text text-anchor="start" x="1169.73" y="-960.4" font-family="Times New Roman,serif" font-size="14.00">+ getId(): String</text>
<text text-anchor="start" x="1169.66" y="-936.4" font-family="Times New Roman,serif" font-size="14.00">+ getScore(context: Context): double</text>
<text text-anchor="start" x="1169.73" y="-912.4" font-family="Times New Roman,serif" font-size="14.00">+ handle(context: Context)</text>
<polygon fill="black" stroke="black" points="1164.73,-977 1164.73,-977 1382.73,-977 1382.73,-977 1164.73,-977"/>
<polygon fill="none" stroke="black" points="1164.73,-904 1164.73,-1002 1382.73,-1002 1382.73,-904 1164.73,-904"/>
</g>
<!-- AbstractPlugin615989509&#45;&gt;PluginStart615989509 -->
<g id="edge2" class="edge">
<title>AbstractPlugin615989509&#45;&gt;PluginStart615989509</title>
<path fill="none" stroke="black" d="M999.03,-887.76C1015.6,-892.17 1026.23,-895 1026.23,-895 1026.23,-895 1098.38,-911.98 1164.61,-927.56"/>
<polygon fill="none" stroke="black" points="999.81,-884.35 989.25,-885.16 998.01,-891.11 999.81,-884.35"/>
</g>
<!-- MessageDispatcher1483699654 -->
<g id="node2" class="node">
<title>MessageDispatcher1483699654</title>
<polygon fill="#ffffff" stroke="transparent" points="293,-898 16,-898 16,-776 293,-776 293,-898"/>
<text text-anchor="start" x="21.5" y="-881.4" font-family="Times New Roman,serif" font-weight="bold" font-size="14.00">(C)MessageDispatcher</text>
<text text-anchor="start" x="21.5" y="-856.4" font-family="Times New Roman,serif" font-size="14.00">&#45; &#160;&#160;plugins: List&lt;Plugin&gt; [0..*]</text>
<text text-anchor="start" x="21.5" y="-832.4" font-family="Times New Roman,serif" font-size="14.00">&#45; &#160;&#160;userRepository: UserRepository [1]</text>
<text text-anchor="start" x="21.5" y="-808.4" font-family="Times New Roman,serif" font-size="14.00">+ findOrRegisterUser(user: User): UserEntity</text>
<text text-anchor="start" x="21.01" y="-784.4" font-family="Times New Roman,serif" font-size="14.00">+ handle(bot: TelegramBot, message: Message)</text>
<polygon fill="black" stroke="black" points="16.5,-873 16.5,-873 293.5,-873 293.5,-873 16.5,-873"/>
<polygon fill="black" stroke="black" points="16.5,-825 16.5,-825 293.5,-825 293.5,-825 16.5,-825"/>
<polygon fill="none" stroke="black" points="16,-776 16,-898 293,-898 293,-776 16,-776"/>
</g>
<!-- Plugin615989509 -->
<g id="node3" class="node">
<title>Plugin615989509</title>
<polygon fill="#f1e5fd" stroke="transparent" points="588.23,-886 370.23,-886 370.23,-788 588.23,-788 588.23,-886"/>
<text text-anchor="start" x="375.23" y="-869.4" font-family="Times New Roman,serif" font-weight="bold" font-size="14.00">(I)Plugin</text>
<text text-anchor="start" x="375.23" y="-844.4" font-family="Times New Roman,serif" font-size="14.00">+ getId(): String</text>
<text text-anchor="start" x="375.16" y="-820.4" font-family="Times New Roman,serif" font-size="14.00">+ getScore(context: Context): double</text>
<text text-anchor="start" x="375.23" y="-796.4" font-family="Times New Roman,serif" font-size="14.00">+ handle(context: Context)</text>
<polygon fill="black" stroke="black" points="370.23,-861 370.23,-861 588.23,-861 588.23,-861 370.23,-861"/>
<polygon fill="none" stroke="black" points="370.23,-788 370.23,-886 588.23,-886 588.23,-788 370.23,-788"/>
</g>
<!-- MessageDispatcher1483699654&#45;&gt;Plugin615989509 -->
<g id="edge4" class="edge">
<title>MessageDispatcher1483699654&#45;&gt;Plugin615989509</title>
<path fill="none" stroke="black" d="M293.3,-837C315.49,-837 338.28,-837 359.95,-837"/>
<polygon fill="black" stroke="black" points="360.16,-840.5 370.16,-837 360.16,-833.5 360.16,-840.5"/>
<text text-anchor="middle" x="331.61" y="-858" font-family="Times New Roman,serif" font-size="14.00">plugins</text>
<text text-anchor="middle" x="331.61" y="-841.2" font-family="Times New Roman,serif" font-size="14.00">[0..*]</text>
</g>
<!-- Plugin615989509&#45;&gt;AbstractPlugin615989509 -->
<g id="edge5" class="edge">
<title>Plugin615989509&#45;&gt;AbstractPlugin615989509</title>
<path fill="none" stroke="black" d="M598.43,-837C607.12,-837 615.99,-837 624.93,-837"/>
<polygon fill="none" stroke="black" points="598.33,-833.5 588.33,-837 598.33,-840.5 598.33,-833.5"/>
</g>
<!-- PluginVitalBloodGlucose202647824 -->
<g id="node5" class="node">
<title>PluginVitalBloodGlucose202647824</title>
<polygon fill="#ffffff" stroke="transparent" points="1731.73,-297 1558.73,-297 1558.73,-247 1731.73,-247 1731.73,-297"/>
<text text-anchor="start" x="1564.07" y="-280.4" font-family="Times New Roman,serif" font-weight="bold" font-size="14.00">(C)PluginVitalBloodGlucose</text>
<text text-anchor="start" x="1564.23" y="-255.4" font-family="Times New Roman,serif" font-size="14.00">+ getId(): String</text>
<polygon fill="black" stroke="black" points="1559.23,-272 1559.23,-272 1732.23,-272 1732.23,-272 1559.23,-272"/>
<polygon fill="none" stroke="black" points="1558.73,-247 1558.73,-297 1731.73,-297 1731.73,-247 1558.73,-247"/>
</g>
<!-- PluginVital202647824&#45;&gt;PluginVitalBloodGlucose202647824 -->
<g id="edge6" class="edge">
<title>PluginVital202647824&#45;&gt;PluginVitalBloodGlucose202647824</title>
<path fill="none" stroke="black" d="M1345.04,-616.12C1430.21,-518.16 1568.9,-358.64 1622.3,-297.21"/>
<polygon fill="none" stroke="black" points="1342.16,-614.1 1338.25,-623.94 1347.45,-618.69 1342.16,-614.1"/>
</g>
<!-- PluginVitalBloodPressure202647824 -->
<g id="node11" class="node">
<title>PluginVitalBloodPressure202647824</title>
<polygon fill="#ffffff" stroke="transparent" points="1732.23,-722 1558.23,-722 1558.23,-672 1732.23,-672 1732.23,-722"/>
<text text-anchor="start" x="1562.79" y="-705.4" font-family="Times New Roman,serif" font-weight="bold" font-size="14.00">(C)PluginVitalBloodPressure</text>
<text text-anchor="start" x="1563.23" y="-680.4" font-family="Times New Roman,serif" font-size="14.00">+ getId(): String</text>
<polygon fill="black" stroke="black" points="1558.23,-697 1558.23,-697 1732.23,-697 1732.23,-697 1558.23,-697"/>
<polygon fill="none" stroke="black" points="1558.23,-672 1558.23,-722 1732.23,-722 1732.23,-672 1558.23,-672"/>
</g>
<!-- PluginVital202647824&#45;&gt;PluginVitalBloodPressure202647824 -->
<g id="edge7" class="edge">
<title>PluginVital202647824&#45;&gt;PluginVitalBloodPressure202647824</title>
<path fill="none" stroke="black" d="M1531.46,-697C1540.59,-697 1549.44,-697 1557.9,-697"/>
<polygon fill="none" stroke="black" points="1531.44,-693.5 1521.44,-697 1531.44,-700.5 1531.44,-693.5"/>
</g>
<!-- PluginVitalTemperature202647824 -->
<g id="node17" class="node">
<title>PluginVitalTemperature202647824</title>
<polygon fill="#ffffff" stroke="transparent" points="1727.23,-1136 1563.23,-1136 1563.23,-1086 1727.23,-1086 1727.23,-1136"/>
<text text-anchor="start" x="1567.86" y="-1119.4" font-family="Times New Roman,serif" font-weight="bold" font-size="14.00">(C)PluginVitalTemperature</text>
<text text-anchor="start" x="1568.23" y="-1094.4" font-family="Times New Roman,serif" font-size="14.00">+ getId(): String</text>
<polygon fill="black" stroke="black" points="1563.23,-1111 1563.23,-1111 1727.23,-1111 1727.23,-1111 1563.23,-1111"/>
<polygon fill="none" stroke="black" points="1563.23,-1086 1563.23,-1136 1727.23,-1136 1727.23,-1086 1563.23,-1086"/>
</g>
<!-- PluginVital202647824&#45;&gt;PluginVitalTemperature202647824 -->
<g id="edge8" class="edge">
<title>PluginVital202647824&#45;&gt;PluginVitalTemperature202647824</title>
<path fill="none" stroke="black" d="M1503.95,-773.25C1514.77,-776.85 1521.23,-779 1521.23,-779 1521.23,-779 1606.18,-1008.3 1634.88,-1085.77"/>
<polygon fill="none" stroke="black" points="1504.97,-769.9 1494.38,-770.07 1502.76,-776.55 1504.97,-769.9"/>
</g>
<!-- PluginVitalBloodGlucoseAdd2021844655 -->
<g id="node6" class="node">
<title>PluginVitalBloodGlucoseAdd2021844655</title>
<polygon fill="#ffffff" stroke="transparent" points="1998.73,-90 1780.73,-90 1780.73,-16 1998.73,-16 1998.73,-90"/>
<text text-anchor="start" x="1785.73" y="-73.4" font-family="Times New Roman,serif" font-weight="bold" font-size="14.00">(C)PluginVitalBloodGlucoseAdd</text>
<text text-anchor="start" x="1785.66" y="-48.4" font-family="Times New Roman,serif" font-size="14.00">+ getScore(context: Context): double</text>
<text text-anchor="start" x="1785.73" y="-24.4" font-family="Times New Roman,serif" font-size="14.00">+ handle(context: Context)</text>
<polygon fill="black" stroke="black" points="1780.73,-65 1780.73,-65 1998.73,-65 1998.73,-65 1780.73,-65"/>
<polygon fill="none" stroke="black" points="1780.73,-16 1780.73,-90 1998.73,-90 1998.73,-16 1780.73,-16"/>
</g>
<!-- PluginVitalBloodGlucose202647824&#45;&gt;PluginVitalBloodGlucoseAdd2021844655 -->
<g id="edge9" class="edge">
<title>PluginVitalBloodGlucose202647824&#45;&gt;PluginVitalBloodGlucoseAdd2021844655</title>
<path fill="none" stroke="black" d="M1670.02,-238.53C1705.78,-188.24 1769.23,-99 1769.23,-99 1769.23,-99 1778.81,-95.31 1792.55,-90.02"/>
<polygon fill="none" stroke="black" points="1667.05,-236.67 1664.11,-246.84 1672.76,-240.72 1667.05,-236.67"/>
</g>
<!-- PluginVitalBloodGlucoseAverage2021844655 -->
<g id="node7" class="node">
<title>PluginVitalBloodGlucoseAverage2021844655</title>
<polygon fill="#ffffff" stroke="transparent" points="1999.73,-182 1779.73,-182 1779.73,-108 1999.73,-108 1999.73,-182"/>
<text text-anchor="start" x="1784.36" y="-165.4" font-family="Times New Roman,serif" font-weight="bold" font-size="14.00">(C)PluginVitalBloodGlucoseAverage</text>
<text text-anchor="start" x="1784.73" y="-140.4" font-family="Times New Roman,serif" font-size="14.00">+ getScore(context: Context): double</text>
<text text-anchor="start" x="1784.73" y="-116.4" font-family="Times New Roman,serif" font-size="14.00">+ handle(context: Context)</text>
<polygon fill="black" stroke="black" points="1779.73,-157 1779.73,-157 1999.73,-157 1999.73,-157 1779.73,-157"/>
<polygon fill="none" stroke="black" points="1779.73,-108 1779.73,-182 1999.73,-182 1999.73,-108 1779.73,-108"/>
</g>
<!-- PluginVitalBloodGlucose202647824&#45;&gt;PluginVitalBloodGlucoseAverage2021844655 -->
<g id="edge10" class="edge">
<title>PluginVitalBloodGlucose202647824&#45;&gt;PluginVitalBloodGlucoseAverage2021844655</title>
<path fill="none" stroke="black" d="M1693.13,-241.11C1727.88,-218.23 1769.23,-191 1769.23,-191 1769.23,-191 1778.81,-187.31 1792.55,-182.02"/>
<polygon fill="none" stroke="black" points="1690.9,-238.39 1684.47,-246.82 1694.75,-244.24 1690.9,-238.39"/>
</g>
<!-- PluginVitalBloodGlucoseMinMax2021844655 -->
<g id="node8" class="node">
<title>PluginVitalBloodGlucoseMinMax2021844655</title>
<polygon fill="#ffffff" stroke="transparent" points="2000.73,-274 1778.73,-274 1778.73,-200 2000.73,-200 2000.73,-274"/>
<text text-anchor="start" x="1783.57" y="-257.4" font-family="Times New Roman,serif" font-weight="bold" font-size="14.00">(C)PluginVitalBloodGlucoseMinMax</text>
<text text-anchor="start" x="1783.73" y="-232.4" font-family="Times New Roman,serif" font-size="14.00">+ getScore(context: Context): double</text>
<text text-anchor="start" x="1783.73" y="-208.4" font-family="Times New Roman,serif" font-size="14.00">+ handle(context: Context)</text>
<polygon fill="black" stroke="black" points="1778.73,-249 1778.73,-249 2000.73,-249 2000.73,-249 1778.73,-249"/>
<polygon fill="none" stroke="black" points="1778.73,-200 1778.73,-274 2000.73,-274 2000.73,-200 1778.73,-200"/>
</g>
<!-- PluginVitalBloodGlucose202647824&#45;&gt;PluginVitalBloodGlucoseMinMax2021844655 -->
<g id="edge11" class="edge">
<title>PluginVitalBloodGlucose202647824&#45;&gt;PluginVitalBloodGlucoseMinMax2021844655</title>
<path fill="none" stroke="black" d="M1742,-258.18C1753.94,-256.45 1766.23,-254.68 1778.37,-252.93"/>
<polygon fill="none" stroke="black" points="1741.46,-254.72 1732.06,-259.61 1742.46,-261.65 1741.46,-254.72"/>
</g>
<!-- PluginVitalBloodGlucoseView_step12021844655 -->
<g id="node9" class="node">
<title>PluginVitalBloodGlucoseView_step12021844655</title>
<polygon fill="#ffffff" stroke="transparent" points="2009.73,-366 1769.73,-366 1769.73,-292 2009.73,-292 2009.73,-366"/>
<text text-anchor="start" x="1774.64" y="-349.4" font-family="Times New Roman,serif" font-weight="bold" font-size="14.00">(C)PluginVitalBloodGlucoseView_step1</text>
<text text-anchor="start" x="1774.73" y="-324.4" font-family="Times New Roman,serif" font-size="14.00">+ getScore(context: Context): double</text>
<text text-anchor="start" x="1774.73" y="-300.4" font-family="Times New Roman,serif" font-size="14.00">+ handle(context: Context)</text>
<polygon fill="black" stroke="black" points="1769.73,-341 1769.73,-341 2009.73,-341 2009.73,-341 1769.73,-341"/>
<polygon fill="none" stroke="black" points="1769.73,-292 1769.73,-366 2009.73,-366 2009.73,-292 1769.73,-292"/>
</g>
<!-- PluginVitalBloodGlucose202647824&#45;&gt;PluginVitalBloodGlucoseView_step12021844655 -->
<g id="edge12" class="edge">
<title>PluginVitalBloodGlucose202647824&#45;&gt;PluginVitalBloodGlucoseView_step12021844655</title>
<path fill="none" stroke="black" d="M1741.83,-294.47C1750.9,-296.6 1760.18,-298.79 1769.45,-300.96"/>
<polygon fill="none" stroke="black" points="1742.6,-291.06 1732.06,-292.18 1741,-297.87 1742.6,-291.06"/>
</g>
<!-- PluginVitalBloodGlucoseView_step22021844655 -->
<g id="node10" class="node">
<title>PluginVitalBloodGlucoseView_step22021844655</title>
<polygon fill="#ffffff" stroke="transparent" points="2009.73,-458 1769.73,-458 1769.73,-384 2009.73,-384 2009.73,-458"/>
<text text-anchor="start" x="1774.64" y="-441.4" font-family="Times New Roman,serif" font-weight="bold" font-size="14.00">(C)PluginVitalBloodGlucoseView_step2</text>
<text text-anchor="start" x="1774.73" y="-416.4" font-family="Times New Roman,serif" font-size="14.00">+ getScore(context: Context): double</text>
<text text-anchor="start" x="1774.73" y="-392.4" font-family="Times New Roman,serif" font-size="14.00">+ handle(context: Context)</text>
<polygon fill="black" stroke="black" points="1769.73,-433 1769.73,-433 2009.73,-433 2009.73,-433 1769.73,-433"/>
<polygon fill="none" stroke="black" points="1769.73,-384 1769.73,-458 2009.73,-458 2009.73,-384 1769.73,-384"/>
</g>
<!-- PluginVitalBloodGlucose202647824&#45;&gt;PluginVitalBloodGlucoseView_step22021844655 -->
<g id="edge13" class="edge">
<title>PluginVitalBloodGlucose202647824&#45;&gt;PluginVitalBloodGlucoseView_step22021844655</title>
<path fill="none" stroke="black" d="M1684.27,-303.86C1720.39,-334.11 1769.23,-375 1769.23,-375 1769.23,-375 1778.81,-378.69 1792.55,-383.98"/>
<polygon fill="none" stroke="black" points="1686.23,-300.93 1676.31,-297.2 1681.73,-306.3 1686.23,-300.93"/>
</g>
<!-- PluginVitalBloodPressureAdd1639952292 -->
<g id="node12" class="node">
<title>PluginVitalBloodPressureAdd1639952292</title>
<polygon fill="#ffffff" stroke="transparent" points="1998.73,-550 1780.73,-550 1780.73,-476 1998.73,-476 1998.73,-550"/>
<text text-anchor="start" x="1785.73" y="-533.4" font-family="Times New Roman,serif" font-weight="bold" font-size="14.00">(C)PluginVitalBloodPressureAdd</text>
<text text-anchor="start" x="1785.66" y="-508.4" font-family="Times New Roman,serif" font-size="14.00">+ getScore(context: Context): double</text>
<text text-anchor="start" x="1785.73" y="-484.4" font-family="Times New Roman,serif" font-size="14.00">+ handle(context: Context)</text>
<polygon fill="black" stroke="black" points="1780.73,-525 1780.73,-525 1998.73,-525 1998.73,-525 1780.73,-525"/>
<polygon fill="none" stroke="black" points="1780.73,-476 1780.73,-550 1998.73,-550 1998.73,-476 1780.73,-476"/>
</g>
<!-- PluginVitalBloodPressure202647824&#45;&gt;PluginVitalBloodPressureAdd1639952292 -->
<g id="edge14" class="edge">
<title>PluginVitalBloodPressure202647824&#45;&gt;PluginVitalBloodPressureAdd1639952292</title>
<path fill="none" stroke="black" d="M1675.54,-664.11C1711.92,-623.29 1769.23,-559 1769.23,-559 1769.23,-559 1778.81,-555.31 1792.55,-550.02"/>
<polygon fill="none" stroke="black" points="1672.83,-661.89 1668.79,-671.69 1678.05,-666.55 1672.83,-661.89"/>
</g>
<!-- PluginVitalBloodPressureAverage1639952292 -->
<g id="node13" class="node">
<title>PluginVitalBloodPressureAverage1639952292</title>
<polygon fill="#ffffff" stroke="transparent" points="2000.73,-642 1778.73,-642 1778.73,-568 2000.73,-568 2000.73,-642"/>
<text text-anchor="start" x="1783.59" y="-625.4" font-family="Times New Roman,serif" font-weight="bold" font-size="14.00">(C)PluginVitalBloodPressureAverage</text>
<text text-anchor="start" x="1783.73" y="-600.4" font-family="Times New Roman,serif" font-size="14.00">+ getScore(context: Context): double</text>
<text text-anchor="start" x="1783.73" y="-576.4" font-family="Times New Roman,serif" font-size="14.00">+ handle(context: Context)</text>
<polygon fill="black" stroke="black" points="1778.73,-617 1778.73,-617 2000.73,-617 2000.73,-617 1778.73,-617"/>
<polygon fill="none" stroke="black" points="1778.73,-568 1778.73,-642 2000.73,-642 2000.73,-568 1778.73,-568"/>
</g>
<!-- PluginVitalBloodPressure202647824&#45;&gt;PluginVitalBloodPressureAverage1639952292 -->
<g id="edge15" class="edge">
<title>PluginVitalBloodPressure202647824&#45;&gt;PluginVitalBloodPressureAverage1639952292</title>
<path fill="none" stroke="black" d="M1721.73,-668.36C1743.63,-660.05 1767.87,-650.85 1790.93,-642.1"/>
<polygon fill="none" stroke="black" points="1720.28,-665.16 1712.17,-671.98 1722.76,-671.71 1720.28,-665.16"/>
</g>
<!-- PluginVitalBloodPressureMinMax1639952292 -->
<g id="node14" class="node">
<title>PluginVitalBloodPressureMinMax1639952292</title>
<polygon fill="#ffffff" stroke="transparent" points="2001.23,-734 1778.23,-734 1778.23,-660 2001.23,-660 2001.23,-734"/>
<text text-anchor="start" x="1783.3" y="-717.4" font-family="Times New Roman,serif" font-weight="bold" font-size="14.00">(C)PluginVitalBloodPressureMinMax</text>
<text text-anchor="start" x="1783.73" y="-692.4" font-family="Times New Roman,serif" font-size="14.00">+ getScore(context: Context): double</text>
<text text-anchor="start" x="1783.73" y="-668.4" font-family="Times New Roman,serif" font-size="14.00">+ handle(context: Context)</text>
<polygon fill="black" stroke="black" points="1778.73,-709 1778.73,-709 2001.73,-709 2001.73,-709 1778.73,-709"/>
<polygon fill="none" stroke="black" points="1778.23,-660 1778.23,-734 2001.23,-734 2001.23,-660 1778.23,-660"/>
</g>
<!-- PluginVitalBloodPressure202647824&#45;&gt;PluginVitalBloodPressureMinMax1639952292 -->
<g id="edge16" class="edge">
<title>PluginVitalBloodPressure202647824&#45;&gt;PluginVitalBloodPressureMinMax1639952292</title>
<path fill="none" stroke="black" d="M1742.6,-697C1754.3,-697 1766.33,-697 1778.22,-697"/>
<polygon fill="none" stroke="black" points="1742.41,-693.5 1732.41,-697 1742.4,-700.5 1742.41,-693.5"/>
</g>
<!-- PluginVitalBloodPressureView_step11639952292 -->
<g id="node15" class="node">
<title>PluginVitalBloodPressureView_step11639952292</title>
<polygon fill="#ffffff" stroke="transparent" points="2010.23,-826 1769.23,-826 1769.23,-752 2010.23,-752 2010.23,-826"/>
<text text-anchor="start" x="1774.36" y="-809.4" font-family="Times New Roman,serif" font-weight="bold" font-size="14.00">(C)PluginVitalBloodPressureView_step1</text>
<text text-anchor="start" x="1774.73" y="-784.4" font-family="Times New Roman,serif" font-size="14.00">+ getScore(context: Context): double</text>
<text text-anchor="start" x="1774.73" y="-760.4" font-family="Times New Roman,serif" font-size="14.00">+ handle(context: Context)</text>
<polygon fill="black" stroke="black" points="1769.73,-801 1769.73,-801 2010.73,-801 2010.73,-801 1769.73,-801"/>
<polygon fill="none" stroke="black" points="1769.23,-752 1769.23,-826 2010.23,-826 2010.23,-752 1769.23,-752"/>
</g>
<!-- PluginVitalBloodPressure202647824&#45;&gt;PluginVitalBloodPressureView_step11639952292 -->
<g id="edge17" class="edge">
<title>PluginVitalBloodPressure202647824&#45;&gt;PluginVitalBloodPressureView_step11639952292</title>
<path fill="none" stroke="black" d="M1721.73,-725.64C1743.63,-733.95 1767.87,-743.15 1790.93,-751.9"/>
<polygon fill="none" stroke="black" points="1722.76,-722.29 1712.17,-722.02 1720.28,-728.84 1722.76,-722.29"/>
</g>
<!-- PluginVitalBloodPressureView_step21639952292 -->
<g id="node16" class="node">
<title>PluginVitalBloodPressureView_step21639952292</title>
<polygon fill="#ffffff" stroke="transparent" points="2010.23,-918 1769.23,-918 1769.23,-844 2010.23,-844 2010.23,-918"/>
<text text-anchor="start" x="1774.36" y="-901.4" font-family="Times New Roman,serif" font-weight="bold" font-size="14.00">(C)PluginVitalBloodPressureView_step2</text>
<text text-anchor="start" x="1774.73" y="-876.4" font-family="Times New Roman,serif" font-size="14.00">+ getScore(context: Context): double</text>
<text text-anchor="start" x="1774.73" y="-852.4" font-family="Times New Roman,serif" font-size="14.00">+ handle(context: Context)</text>
<polygon fill="black" stroke="black" points="1769.73,-893 1769.73,-893 2010.73,-893 2010.73,-893 1769.73,-893"/>
<polygon fill="none" stroke="black" points="1769.23,-844 1769.23,-918 2010.23,-918 2010.23,-844 1769.23,-844"/>
</g>
<!-- PluginVitalBloodPressure202647824&#45;&gt;PluginVitalBloodPressureView_step21639952292 -->
<g id="edge18" class="edge">
<title>PluginVitalBloodPressure202647824&#45;&gt;PluginVitalBloodPressureView_step21639952292</title>
<path fill="none" stroke="black" d="M1675.54,-729.89C1711.92,-770.71 1769.23,-835 1769.23,-835 1769.23,-835 1778.81,-838.69 1792.55,-843.98"/>
<polygon fill="none" stroke="black" points="1678.05,-727.45 1668.79,-722.31 1672.83,-732.11 1678.05,-727.45"/>
</g>
<!-- PluginVitalTemperatureAdd114842617 -->
<g id="node18" class="node">
<title>PluginVitalTemperatureAdd114842617</title>
<polygon fill="#ffffff" stroke="transparent" points="1998.73,-1010 1780.73,-1010 1780.73,-936 1998.73,-936 1998.73,-1010"/>
<text text-anchor="start" x="1785.73" y="-993.4" font-family="Times New Roman,serif" font-weight="bold" font-size="14.00">(C)PluginVitalTemperatureAdd</text>
<text text-anchor="start" x="1785.66" y="-968.4" font-family="Times New Roman,serif" font-size="14.00">+ getScore(context: Context): double</text>
<text text-anchor="start" x="1785.73" y="-944.4" font-family="Times New Roman,serif" font-size="14.00">+ handle(context: Context)</text>
<polygon fill="black" stroke="black" points="1780.73,-985 1780.73,-985 1998.73,-985 1998.73,-985 1780.73,-985"/>
<polygon fill="none" stroke="black" points="1780.73,-936 1780.73,-1010 1998.73,-1010 1998.73,-936 1780.73,-936"/>
</g>
<!-- PluginVitalTemperature202647824&#45;&gt;PluginVitalTemperatureAdd114842617 -->
<g id="edge19" class="edge">
<title>PluginVitalTemperature202647824&#45;&gt;PluginVitalTemperatureAdd114842617</title>
<path fill="none" stroke="black" d="M1688.19,-1079.61C1723.83,-1052.96 1769.23,-1019 1769.23,-1019 1769.23,-1019 1778.81,-1015.31 1792.55,-1010.02"/>
<polygon fill="none" stroke="black" points="1685.75,-1077.07 1679.84,-1085.86 1689.94,-1082.67 1685.75,-1077.07"/>
</g>
<!-- PluginVitalTemperatureAverage114842617 -->
<g id="node19" class="node">
<title>PluginVitalTemperatureAverage114842617</title>
<polygon fill="#ffffff" stroke="transparent" points="1998.73,-1102 1780.73,-1102 1780.73,-1028 1998.73,-1028 1998.73,-1102"/>
<text text-anchor="start" x="1785.73" y="-1085.4" font-family="Times New Roman,serif" font-weight="bold" font-size="14.00">(C)PluginVitalTemperatureAverage</text>
<text text-anchor="start" x="1785.66" y="-1060.4" font-family="Times New Roman,serif" font-size="14.00">+ getScore(context: Context): double</text>
<text text-anchor="start" x="1785.73" y="-1036.4" font-family="Times New Roman,serif" font-size="14.00">+ handle(context: Context)</text>
<polygon fill="black" stroke="black" points="1780.73,-1077 1780.73,-1077 1998.73,-1077 1998.73,-1077 1780.73,-1077"/>
<polygon fill="none" stroke="black" points="1780.73,-1028 1780.73,-1102 1998.73,-1102 1998.73,-1028 1780.73,-1028"/>
</g>
<!-- PluginVitalTemperature202647824&#45;&gt;PluginVitalTemperatureAverage114842617 -->
<g id="edge20" class="edge">
<title>PluginVitalTemperature202647824&#45;&gt;PluginVitalTemperatureAverage114842617</title>
<path fill="none" stroke="black" d="M1737.44,-1093.7C1751.51,-1091.03 1766.15,-1088.25 1780.54,-1085.52"/>
<polygon fill="none" stroke="black" points="1736.48,-1090.32 1727.31,-1095.62 1737.79,-1097.19 1736.48,-1090.32"/>
</g>
<!-- PluginVitalTemperatureMinMax114842617 -->
<g id="node20" class="node">
<title>PluginVitalTemperatureMinMax114842617</title>
<polygon fill="#ffffff" stroke="transparent" points="1998.73,-1194 1780.73,-1194 1780.73,-1120 1998.73,-1120 1998.73,-1194"/>
<text text-anchor="start" x="1785.73" y="-1177.4" font-family="Times New Roman,serif" font-weight="bold" font-size="14.00">(C)PluginVitalTemperatureMinMax</text>
<text text-anchor="start" x="1785.66" y="-1152.4" font-family="Times New Roman,serif" font-size="14.00">+ getScore(context: Context): double</text>
<text text-anchor="start" x="1785.73" y="-1128.4" font-family="Times New Roman,serif" font-size="14.00">+ handle(context: Context)</text>
<polygon fill="black" stroke="black" points="1780.73,-1169 1780.73,-1169 1998.73,-1169 1998.73,-1169 1780.73,-1169"/>
<polygon fill="none" stroke="black" points="1780.73,-1120 1780.73,-1194 1998.73,-1194 1998.73,-1120 1780.73,-1120"/>
</g>
<!-- PluginVitalTemperature202647824&#45;&gt;PluginVitalTemperatureMinMax114842617 -->
<g id="edge21" class="edge">
<title>PluginVitalTemperature202647824&#45;&gt;PluginVitalTemperatureMinMax114842617</title>
<path fill="none" stroke="black" d="M1737.44,-1128.3C1751.51,-1130.97 1766.15,-1133.75 1780.54,-1136.48"/>
<polygon fill="none" stroke="black" points="1737.79,-1124.81 1727.31,-1126.38 1736.48,-1131.68 1737.79,-1124.81"/>
</g>
<!-- PluginVitalTemperatureView_step1114842617 -->
<g id="node21" class="node">
<title>PluginVitalTemperatureView_step1114842617</title>
<polygon fill="#ffffff" stroke="transparent" points="2005.23,-1286 1774.23,-1286 1774.23,-1212 2005.23,-1212 2005.23,-1286"/>
<text text-anchor="start" x="1779.43" y="-1269.4" font-family="Times New Roman,serif" font-weight="bold" font-size="14.00">(C)PluginVitalTemperatureView_step1</text>
<text text-anchor="start" x="1779.73" y="-1244.4" font-family="Times New Roman,serif" font-size="14.00">+ getScore(context: Context): double</text>
<text text-anchor="start" x="1779.73" y="-1220.4" font-family="Times New Roman,serif" font-size="14.00">+ handle(context: Context)</text>
<polygon fill="black" stroke="black" points="1774.73,-1261 1774.73,-1261 2005.73,-1261 2005.73,-1261 1774.73,-1261"/>
<polygon fill="none" stroke="black" points="1774.23,-1212 1774.23,-1286 2005.23,-1286 2005.23,-1212 1774.23,-1212"/>
</g>
<!-- PluginVitalTemperature202647824&#45;&gt;PluginVitalTemperatureView_step1114842617 -->
<g id="edge22" class="edge">
<title>PluginVitalTemperature202647824&#45;&gt;PluginVitalTemperatureView_step1114842617</title>
<path fill="none" stroke="black" d="M1688.19,-1142.39C1723.83,-1169.04 1769.23,-1203 1769.23,-1203 1769.23,-1203 1778.81,-1206.69 1792.55,-1211.98"/>
<polygon fill="none" stroke="black" points="1689.94,-1139.33 1679.84,-1136.14 1685.75,-1144.93 1689.94,-1139.33"/>
</g>
<!-- PluginVitalTemperatureView_step2114842617 -->
<g id="node22" class="node">
<title>PluginVitalTemperatureView_step2114842617</title>
<polygon fill="#ffffff" stroke="transparent" points="2005.23,-1378 1774.23,-1378 1774.23,-1304 2005.23,-1304 2005.23,-1378"/>
<text text-anchor="start" x="1779.43" y="-1361.4" font-family="Times New Roman,serif" font-weight="bold" font-size="14.00">(C)PluginVitalTemperatureView_step2</text>
<text text-anchor="start" x="1779.73" y="-1336.4" font-family="Times New Roman,serif" font-size="14.00">+ getScore(context: Context): double</text>
<text text-anchor="start" x="1779.73" y="-1312.4" font-family="Times New Roman,serif" font-size="14.00">+ handle(context: Context)</text>
<polygon fill="black" stroke="black" points="1774.73,-1353 1774.73,-1353 2005.73,-1353 2005.73,-1353 1774.73,-1353"/>
<polygon fill="none" stroke="black" points="1774.23,-1304 1774.23,-1378 2005.23,-1378 2005.23,-1304 1774.23,-1304"/>
</g>
<!-- PluginVitalTemperature202647824&#45;&gt;PluginVitalTemperatureView_step2114842617 -->
<g id="edge23" class="edge">
<title>PluginVitalTemperature202647824&#45;&gt;PluginVitalTemperatureView_step2114842617</title>
<path fill="none" stroke="black" d="M1668.71,-1144.63C1704.2,-1197.72 1769.23,-1295 1769.23,-1295 1769.23,-1295 1778.81,-1298.69 1792.55,-1303.98"/>
<polygon fill="none" stroke="black" points="1671.54,-1142.57 1663.07,-1136.2 1665.72,-1146.46 1671.54,-1142.57"/>
</g>
</g>
</svg>
